<svg viewBox="0 0 210 210" width="40" height="40"><title>Diablo</title><path d="M34,175.07h6.95l28.62,0c25.78,0,38.46,14,38.46,14s12.67-13.94,38.43-13.94l28.61,0,7,0s-7-6.33-7-19.21v-9.42C175.06,120.67,189,108,189,108s-13.95-12.67-13.95-38.44V60.18c0-12.89,7-19.23,7-19.23H146.45C120.69,41,108,27,108,27S95.34,41,69.56,41H34s7,6.34,7,19.23v9.39C40.93,95.34,27,108,27,108s13.94,12.66,13.94,38.42v9.42C40.94,168.74,34,175.07,34,175.07ZM53.26,93.79V53.27H93.77s11.85,4.37,14.24,13.9c2.39-9.54,14.24-13.9,14.24-13.9h40.49v40.5s-4.36,11.85-13.89,14.25c9.53,2.38,13.9,14.23,13.9,14.23v40.49H122.25s-11.86-4.37-14.23-13.88c-2.39,9.52-14.25,13.88-14.25,13.88H53.26V122.25s4.37-11.86,13.9-14.22C57.64,105.63,53.26,93.79,53.26,93.79Z"></path><path d="M64.48,141.42l.23,1.41,1.49-.11c1-.06,2-.11,3.1-.2,4-.28,8.48-.61,12.7-.68h1l1.93,0c1.33,0,2.67,0,4,0l16.57.29h.07c21-.91,37.63-15,38.58-32.69.4-7.52-2.65-16-7.93-22-.4-.45-.91-1.08-.81-1.14s3,1.16,4.75,2.09c2,1.12,7.05,4.31,7.05,4.31A27.64,27.64,0,0,0,141.92,86C133,77.3,117.41,73.76,105.63,73.3c-1.92-.08-4.12-.11-6.48-.11-10.18,0-23.83.71-33.22,1.71L64.65,75l-.16,1.25-.09.79-.19,1.49,1.53.24c4.15.65,11.16,2.73,11.19,6.4,0,5.41.25,43.64.25,44v.17c0,4.68-3.36,7.47-11.63,9.59l-1.41.36.21,1.38Zm30.21-56,.06-1.83a1.58,1.58,0,0,1,.17-.79,5.67,5.67,0,0,1,1.47-.24h.2a23.07,23.07,0,0,1,2.38-.1,31.49,31.49,0,0,1,11.24,2.07c8,3.2,12.07,7.92,14.69,16.77a28.17,28.17,0,0,1,1.15,7.9c0,10.45-5.93,19.15-14.75,21.67a18,18,0,0,1-5.66.73c-.82,0-1.6,0-2.35,0-2.52,0-4.63-.15-5.35-.23-2.06-.24-3.43-.41-3.54-4.77Z"></path></svg>