<svg viewBox="0 0 210 210" width="40" height="40"><title>Overwatch</title><path d="M72.37,62.18a56.66,56.66,0,0,1,34.84-12h1.59a56.65,56.65,0,0,1,34.83,12l14.52-18A79.31,79.31,0,0,0,108.8,27h-1.59A79.37,79.37,0,0,0,57.84,44.2Z"></path><path d="M189,108a81.13,81.13,0,0,0-26.52-60.12l-14.58,18a58.1,58.1,0,0,1,10.45,71l-32.22-31.32L111.46,69.88v53.58l31.69,30.73a57.23,57.23,0,0,1-4.83,3.31l0,0a56.36,56.36,0,0,1-29.5,8.32l-.79,0h0l-.79,0a56.36,56.36,0,0,1-29.49-8.32l0,0a52.86,52.86,0,0,1-4.8-3.29l31.66-30.74V69.88L89.87,105.54,57.65,136.86A58.09,58.09,0,0,1,68,66L53.36,48a81.4,81.4,0,0,0-2.88,117.17l0,0a80,80,0,0,0,26,17.58l.27.1c.73.31,1.47.6,2.21.89l.75.28c.54.2,1.08.38,1.63.57a77.9,77.9,0,0,0,8.49,2.42l.64.14,1.83.38.91.16c.57.1,1.15.21,1.73.3s1.11.16,1.67.23,1.33.17,2,.25l1.69.17,1.19.09c.62.05,1.25.08,1.87.11l1,.05q1.44.06,2.88.06h0l.78,0,.8,0h0q1.46,0,2.88-.06l1-.05c.63,0,1.25-.06,1.88-.11l1.18-.09,1.68-.17c.67-.08,1.34-.15,2-.25s1.11-.14,1.66-.23l1.74-.3.9-.16,1.84-.38.63-.14a78.72,78.72,0,0,0,8.5-2.42c.54-.19,1.08-.37,1.62-.57l.75-.28c.74-.29,1.48-.58,2.22-.89l.27-.1a80.16,80.16,0,0,0,26-17.58l0,0A81.12,81.12,0,0,0,189,108"></path></svg>