<svg viewBox="0 0 210 210" width="40" height="40"><title>Nexus</title><path d="M30.06,153V63L108,18l77.94,45v90L108,198ZM108,190.64l71.57-41.32V66.68L108,25.36,36.43,66.68v82.64Z"></path><path d="M108,41c-4.1,7.15-11,30.75-10,49.64A45.56,45.56,0,0,1,115.7,75.92c13.93,2.78,30.64,10.81,39.37,19.49,4.59,7.16,9.55,21.46,9.55,37.59l1.41-1.44V74.5Z"></path><path d="M50,141.5c8.24,0,32.27-6,48.08-16.41a45.67,45.67,0,0,1-21.68-7.72c-4.56-13.45-6-31.94-2.81-43.84,3.9-7.55,13.81-19,27.78-27.06l-2-.51L50,74.5Z"></path><path d="M166,141.5c-4.15-7.12-21.23-25.14-38.13-33.64a46.48,46.48,0,0,1,4,22.85c-9.37,10.67-24.68,21.13-36.57,24.35-8.48.4-23.35-2.46-37.32-10.53l.54,1.95L108,175Z"></path></svg>