<svg viewBox="0 0 210 210" width="40" height="40"><title>Warcraft</title><path d="M55.37,169.55a80.94,80.94,0,0,0,105.27,0h17.57V148.42a81.12,81.12,0,0,0,0-80.85V46.44H160.64a81,81,0,0,0-105.28,0H37.8V67.57a81.06,81.06,0,0,0,0,80.85v21.13ZM108,39.15A68.85,68.85,0,1,1,39.14,108,68.84,68.84,0,0,1,108,39.15Z"></path><path d="M64.14,75.75l17.68,76c.45,3.32-2.1,6.48-4.63,9.32h28.3a22.13,22.13,0,0,1-2-8.38l6.1-27.76c1.77,8.31,3.45,16.51,5.25,24.82a16.73,16.73,0,0,1-1.19,11.32H141.8c-1.48-2.62-3.72-6.38-3.19-10.37l11-67.1a62.62,62.62,0,0,1,8.84-16.93c-9,.12-18.51-.21-27.24.22,3.47,3.25,1.06,8.51.74,12.4l-8.32,50.47c-.11-.1-.3-.21-.2-.52l-14.41-56.8c-5.15,18.75-8.83,38-14.4,56.59l-.21-.32L83.82,77.84l.52-11.13H57.51C61,68.49,62.87,72.4,64.14,75.75Z"></path></svg>